<svg width="35" height="30" viewBox="0 0 35 30" fill="none" xmlns="http://www.w3.org/2000/svg">
<path d="M35 28.1667C35 28.719 34.5523 29.1667 34 29.1667H1C0.447715 29.1667 0 28.719 0 28.1667V24.3333C0 23.7811 0.447715 23.3333 1 23.3333H34C34.5523 23.3333 35 23.7811 35 24.3333V28.1667ZM35 16.5C35 17.0523 34.5523 17.5 34 17.5H1C0.447715 17.5 0 17.0523 0 16.5V12.6667C0 12.1144 0.447715 11.6667 1 11.6667H34C34.5523 11.6667 35 12.1144 35 12.6667V16.5ZM35 4.83333C35 5.38562 34.5523 5.83333 34 5.83333H1C0.447715 5.83333 0 5.38562 0 4.83333V1C0 0.447716 0.447715 0 1 0H34C34.5523 0 35 0.447715 35 1V4.83333Z" fill="url(#paint0_linear_4_2)"/>
<defs>
<linearGradient id="paint0_linear_4_2" x1="3.20975e-07" y1="0.677368" x2="31.9923" y2="36.3777" gradientUnits="userSpaceOnUse">
<stop stop-color="#2D3945"/>
<stop offset="1" stop-color="#819EB9"/>
</linearGradient>
</defs>
</svg>
